# xmcd
#
# Track frame offsets:
#	150
#	18542
#	33580
#	48165
#	67213
#	83685
#	105069
#	124266
#	144061
#	162130
#	177830
#	193195
#	211332
#	231963
#	233169
# Disc length: 3400 seconds
# Revision: 1
# Processed by: cddbd v1.5.1PL2 Copyright (c) Steve Scherf et al.
#
# Submitted via: libkcddb 0.31
#
DISCID=c20d460f
DTITLE=Arab Music - voli.1
DYEAR=2006
DGENRE=
TTITLE0=BNETTE_BLADI.wav
TTITLE1=Da Habeeby Da.wav
TTITLE2=Dantila.wav
TTITLE3=El Hob Kalam.wav
TTITLE4=El Leila Holleila.wav
TTITLE5=Mazikana_Fadel_Shaker---Akhedni-Maak(Yara).wav
TTITLE6=Mazikana_Yara---Alf-Zaiak.wav
TTITLE7=Mazikana_Yara---Ayam.wav
TTITLE8=Mazikana_Yara---Bala-Eshk.wav
TTITLE9=Mazikana_Yara---Hob-Keber.wav
TTITLE10=Mazikana_Yara---Lama-Tetalaa.wav
TTITLE11=Mazikana_Yara---Law-Basely.wav
TTITLE12=Mazikana_Yara---Nasetny-Zaman.wav
TTITLE13=Mazikana_Yara---Twasa-Feyi.wav
TTITLE14=Ya-Kassi.wav
EXTD=
EXTT0=
EXTT1=
EXTT2=
EXTT3=
EXTT4=
EXTT5=
EXTT6=
EXTT7=
EXTT8=
EXTT9=
EXTT10=
EXTT11=
EXTT12=
EXTT13=
EXTT14=
PLAYORDER=
